<?xml version="1.0" encoding="UTF-8" standalone="no"?>
<svg
   xmlns="http://www.w3.org/2000/svg"
   width="17.991673mm"
   height="13.40555mm"
   viewBox="0 0 17.991673 13.40555">
  <g transform="translate(0,-283.59446)">
    <path d="m 3.8943015,283.94723 10.2192745,0 2.81975,5.99158 0,7.0612 -16.22777401,0 0,-7.0612 3.18874951,-5.99158 z" style="fill:#ffffff;fill-opacity:1;fill-rule:nonzero;stroke:none;stroke-width:0.35277778"/>
    <path d="m 1.0583218,296.64723 15.8750042,0 0,-6.63398 -3.02048,-6.06602 -9.8181615,0 -3.0363627,6.06637 0,6.63363 z m 16.5805642,0.35278 -17.28611406,0 0,-7.13634 3.34185956,-6.26921 10.6193245,0 3.32493,6.26921 0,7.13634 z" style="fill:#3fa9f5;fill-opacity:1;fill-rule:nonzero;stroke:none;stroke-width:0.35277778"/>
    <path d="m 3.7309715,283.94723 10.9244745,0 2.98344,3.66007 0,3.04271 -17.6388940744428,0 0,-3.04271 L 3.7309715,283.94723 Z" style="fill:#ffffff;fill-opacity:1;fill-rule:nonzero;stroke:none;stroke-width:0.35277778"/>
    <path d="m 0.35277194,290.29723 17.28611406,0 0,-2.56998 -3.1309,-3.42724 -10.6404945,0 -3.51471956,3.43782 0,2.5594 z m 17.63889406,0.70556 -17.9916740744428,0 0,-3.52566 L 3.5951515,283.59446 l 11.2077545,0 3.18876,3.8936 0,3.51473 z" style="fill:#3fa9f5;fill-opacity:1;fill-rule:nonzero;stroke:none;stroke-width:0.35277778"/>
    <path d="m 5.2207545,286.0639 7.8556515,0 0.3556,0.70556 -8.6666915,0 0.45544,-0.70556 z" style="fill:#3fa9f5;fill-opacity:1;fill-rule:nonzero;stroke:none;stroke-width:0.35277778"/>
  </g>
</svg>
